<?xml version="1.0" encoding="UTF-8" standalone="no"?>
<!-- Created with Inkscape (http://www.inkscape.org/) -->

<svg
   xmlns:dc="http://purl.org/dc/elements/1.1/"
   xmlns:cc="http://creativecommons.org/ns#"
   xmlns:rdf="http://www.w3.org/1999/02/22-rdf-syntax-ns#"
   xmlns:svg="http://www.w3.org/2000/svg"
   xmlns="http://www.w3.org/2000/svg"
   xmlns:sodipodi="http://sodipodi.sourceforge.net/DTD/sodipodi-0.dtd"
   xmlns:inkscape="http://www.inkscape.org/namespaces/inkscape"
   width="45.498482mm"
   height="30.998848mm"
   viewBox="0 0 45.498482 30.998848"
   version="1.1"
   id="svg8"
   inkscape:version="0.92.4 (5da689c313, 2019-01-14)"
   sodipodi:docname="logo.svg">
  <defs
     id="defs2">
    <marker
       style="overflow:visible"
       refY="0"
       refX="0"
       orient="auto"
       id="DistanceX">
      <path
         id="path817"
         style="stroke:#000000;stroke-width:0.5"
         d="M 3,-3 -3,3 M 0,-5 V 5"
         inkscape:connector-curvature="0" />
    </marker>
    <pattern
       y="0"
       x="0"
       width="8"
       patternUnits="userSpaceOnUse"
       id="Hatch"
       height="8">
      <path
         id="path820"
         stroke-width="0.25"
         stroke="#000000"
         linecap="square"
         d="M8 4 l-4,4" />
      <path
         id="path822"
         stroke-width="0.25"
         stroke="#000000"
         linecap="square"
         d="M6 2 l-4,4" />
      <path
         id="path824"
         stroke-width="0.25"
         stroke="#000000"
         linecap="square"
         d="M4 0 l-4,4" />
    </pattern>
    <symbol
       id="*MODEL_SPACE" />
    <symbol
       id="*PAPER_SPACE" />
    <marker
       style="overflow:visible"
       refY="0"
       refX="0"
       orient="auto"
       id="DistanceX-1">
      <path
         id="path2233"
         style="stroke:#000000;stroke-width:0.5"
         d="M 3,-3 -3,3 M 0,-5 V 5"
         inkscape:connector-curvature="0" />
    </marker>
    <pattern
       y="0"
       x="0"
       width="8"
       patternUnits="userSpaceOnUse"
       id="Hatch-8"
       height="8">
      <path
         id="path2236"
         stroke-width="0.25"
         stroke="#000000"
         linecap="square"
         d="M8 4 l-4,4" />
      <path
         id="path2238"
         stroke-width="0.25"
         stroke="#000000"
         linecap="square"
         d="M6 2 l-4,4" />
      <path
         id="path2240"
         stroke-width="0.25"
         stroke="#000000"
         linecap="square"
         d="M4 0 l-4,4" />
    </pattern>
    <symbol
       id="*MODEL_SPACE-8" />
    <symbol
       id="*PAPER_SPACE-3" />
    <marker
       style="overflow:visible"
       refY="0"
       refX="0"
       orient="auto"
       id="DistanceX-2">
      <path
         id="path3710"
         style="stroke:#000000;stroke-width:0.5"
         d="M 3,-3 -3,3 M 0,-5 V 5"
         inkscape:connector-curvature="0" />
    </marker>
    <pattern
       y="0"
       x="0"
       width="8"
       patternUnits="userSpaceOnUse"
       id="Hatch-5"
       height="8">
      <path
         id="path3713"
         stroke-width="0.25"
         stroke="#000000"
         linecap="square"
         d="M8 4 l-4,4" />
      <path
         id="path3715"
         stroke-width="0.25"
         stroke="#000000"
         linecap="square"
         d="M6 2 l-4,4" />
      <path
         id="path3717"
         stroke-width="0.25"
         stroke="#000000"
         linecap="square"
         d="M4 0 l-4,4" />
    </pattern>
    <symbol
       id="*MODEL_SPACE-0" />
    <symbol
       id="*PAPER_SPACE-2" />
  </defs>
  <sodipodi:namedview
     id="base"
     pagecolor="#ffffff"
     bordercolor="#666666"
     borderopacity="1.0"
     inkscape:pageopacity="0.0"
     inkscape:pageshadow="2"
     inkscape:zoom="0.70710678"
     inkscape:cx="144.8208"
     inkscape:cy="145.64714"
     inkscape:document-units="mm"
     inkscape:current-layer="layer1"
     showgrid="false"
     fit-margin-top="0"
     fit-margin-left="0"
     fit-margin-right="0"
     fit-margin-bottom="0"
     inkscape:window-width="1920"
     inkscape:window-height="1017"
     inkscape:window-x="1352"
     inkscape:window-y="-8"
     inkscape:window-maximized="1" />
  <metadata
     id="metadata5">
    <rdf:RDF>
      <cc:Work
         rdf:about="">
        <dc:format>image/svg+xml</dc:format>
        <dc:type
           rdf:resource="http://purl.org/dc/dcmitype/StillImage" />
        <dc:title></dc:title>
      </cc:Work>
    </rdf:RDF>
  </metadata>
  <g
     inkscape:label="Capa 1"
     inkscape:groupmode="layer"
     id="layer1"
     transform="translate(-45.758943,-41.107726)">
    <g
       aria-label="123456"
       style="font-style:normal;font-variant:normal;font-weight:normal;font-stretch:normal;font-size:10.58333302px;line-height:1.25;font-family:'Courier New';-inkscape-font-specification:'Courier New';letter-spacing:0px;word-spacing:0px;fill:none;fill-opacity:1;stroke:#000000;stroke-width:0.65457761;stroke-miterlimit:4;stroke-dasharray:none;stroke-opacity:1"
       id="text3693"
       transform="matrix(0,-0.51330813,0.51330813,0,48.55842,113.2744)">
      <path
         d="m 95.167615,59.425774 v 6.13916 h 1.488281 q 0.15503,0 0.222209,0.06201 0.06718,0.05684 0.06718,0.155029 0,0.09302 -0.06718,0.155029 -0.06718,0.06201 -0.222209,0.06201 h -3.410644 q -0.155029,0 -0.222209,-0.06201 -0.06718,-0.06201 -0.06718,-0.155029 0,-0.09819 0.06718,-0.155029 0.06718,-0.06201 0.222209,-0.06201 h 1.488281 V 60.02522 l -1.415934,0.444418 q -0.103353,0.03101 -0.149862,0.03101 -0.07751,0 -0.144694,-0.06201 -0.06201,-0.06718 -0.06201,-0.155029 0,-0.07751 0.05168,-0.144694 0.04134,-0.04134 0.170532,-0.08785 z"
         style="fill:none;fill-opacity:1;stroke:#000000;stroke-width:0.65457761;stroke-miterlimit:4;stroke-dasharray:none;stroke-opacity:1"
         id="path3695"
         inkscape:connector-curvature="0" />
      <path
         d="m 99.430921,65.564934 h 3.333129 v -0.170532 q 0,-0.15503 0.062,-0.222209 0.062,-0.06718 0.1602,-0.06718 0.093,0 0.15503,0.06718 0.062,0.06718 0.062,0.222209 v 0.604614 h -4.196126 v -0.640788 q 1.322916,-1.188558 2.573486,-2.418457 0.58394,-0.573608 0.80098,-0.842326 0.21705,-0.268717 0.29456,-0.470255 0.0827,-0.206706 0.0827,-0.413412 0,-0.558105 -0.44958,-0.98702 -0.44959,-0.428914 -1.08521,-0.428914 -0.56844,0 -1.00769,0.325562 -0.439247,0.325561 -0.568438,0.806152 -0.03101,0.124023 -0.07752,0.160197 -0.06201,0.05168 -0.144694,0.05168 -0.08785,0 -0.149862,-0.05684 -0.05684,-0.06201 -0.05684,-0.144694 0,-0.248047 0.268718,-0.671793 0.273885,-0.423747 0.749306,-0.666626 0.48059,-0.24288 0.98186,-0.24288 0.81132,0 1.39526,0.563274 0.58394,0.563273 0.58394,1.276407 0,0.299724 -0.0982,0.552938 -0.0982,0.248047 -0.3359,0.54777 -0.23254,0.294556 -0.84233,0.894003 -1.52962,1.508951 -2.4908,2.340942 z"
         style="fill:none;fill-opacity:1;stroke:#000000;stroke-width:0.65457761;stroke-miterlimit:4;stroke-dasharray:none;stroke-opacity:1"
         id="path3697"
         inkscape:connector-curvature="0" />
      <path
         d="m 108.53631,62.469516 q 0.59944,0.268717 0.91467,0.738973 0.31523,0.465087 0.31523,0.971516 0,0.780315 -0.63562,1.379761 -0.63046,0.594279 -1.5813,0.594279 -0.55811,0 -1.15755,-0.237711 -0.59945,-0.237712 -0.83716,-0.485759 -0.0775,-0.08268 -0.0775,-0.1757 0,-0.08268 0.0569,-0.144694 0.062,-0.06201 0.14469,-0.06201 0.0827,0 0.18604,0.07752 0.80098,0.594279 1.69498,0.594279 0.75448,0 1.26091,-0.470255 0.51159,-0.475424 0.51159,-1.0542 0,-0.387573 -0.25321,-0.759643 -0.24805,-0.37207 -0.7183,-0.583944 -0.47026,-0.217041 -0.95085,-0.217041 -0.15503,0 -0.22221,-0.05684 -0.0672,-0.06201 -0.0672,-0.160197 0,-0.09302 0.062,-0.155029 0.0672,-0.06201 0.19637,-0.06201 l 0.37207,0.0052 q 0.58394,0 0.96118,-0.356568 0.3824,-0.356567 0.3824,-0.826822 0,-0.485759 -0.39791,-0.857829 -0.3979,-0.372071 -1.03869,-0.372071 -0.44959,0 -0.82682,0.15503 -0.37724,0.155029 -0.60462,0.423747 -0.0827,0.103352 -0.12919,0.129191 -0.0413,0.02067 -0.0982,0.02067 -0.0878,0 -0.14987,-0.05684 -0.062,-0.06201 -0.062,-0.144694 0,-0.206706 0.44959,-0.521932 0.62528,-0.43925 1.4211,-0.43925 0.82165,0 1.34875,0.496094 0.5271,0.490926 0.5271,1.173055 0,0.434082 -0.25321,0.821655 -0.25322,0.387574 -0.74414,0.620118 z"
         style="fill:none;fill-opacity:1;stroke:#000000;stroke-width:0.65457761;stroke-miterlimit:4;stroke-dasharray:none;stroke-opacity:1"
         id="path3699"
         inkscape:connector-curvature="0" />
      <path
         d="m 114.79949,64.185173 h -2.87838 v -0.501261 l 2.41329,-4.170288 h 0.90434 v 4.237467 h 0.36174 q 0.16019,0 0.22737,0.06201 0.0672,0.05684 0.0672,0.155029 0,0.09302 -0.0672,0.155029 -0.0672,0.06201 -0.22737,0.06201 h -0.36174 v 1.379761 h 0.36174 q 0.16019,0 0.22737,0.06201 0.0672,0.05684 0.0672,0.155029 0,0.09302 -0.0672,0.155029 -0.0672,0.06201 -0.22737,0.06201 h -1.61231 q -0.1602,0 -0.22737,-0.06201 -0.0672,-0.06201 -0.0672,-0.155029 0,-0.09819 0.0672,-0.155029 0.0672,-0.06201 0.22737,-0.06201 h 0.81132 z m 0,-0.434082 v -3.798218 h -0.22737 l -2.19625,3.798218 z"
         style="fill:none;fill-opacity:1;stroke:#000000;stroke-width:0.65457761;stroke-miterlimit:4;stroke-dasharray:none;stroke-opacity:1"
         id="path3701"
         inkscape:connector-curvature="0" />
      <path
         d="m 119.14031,59.952873 v 2.123902 q 0.38241,-0.160197 0.73381,-0.237712 0.3514,-0.08268 0.66662,-0.08268 0.81649,0 1.36426,0.573608 0.55294,0.573609 0.55294,1.508952 0,1.033529 -0.62012,1.674316 -0.62012,0.640788 -1.55029,0.640788 -0.61495,0 -1.18339,-0.273885 -0.40308,-0.191203 -0.73381,-0.475423 -0.19637,-0.170532 -0.19637,-0.284221 0,-0.09302 0.062,-0.155029 0.062,-0.06718 0.1447,-0.06718 0.0879,0 0.18603,0.09302 0.78032,0.728638 1.70016,0.728638 0.75964,0 1.25573,-0.516764 0.4961,-0.521932 0.4961,-1.384929 0,-0.733805 -0.42892,-1.178222 -0.42891,-0.449585 -1.09037,-0.449585 -0.67696,0 -1.35392,0.356567 -0.16537,0.08268 -0.23254,0.08268 -0.093,0 -0.14987,-0.06201 -0.0568,-0.06201 -0.0568,-0.1757 v -2.878377 h 3.02824 q 0.15503,0 0.22221,0.06201 0.0672,0.06201 0.0672,0.160197 0,0.09302 -0.0672,0.15503 -0.0672,0.06201 -0.22221,0.06201 z"
         style="fill:none;fill-opacity:1;stroke:#000000;stroke-width:0.65457761;stroke-miterlimit:4;stroke-dasharray:none;stroke-opacity:1"
         id="path3703"
         inkscape:connector-curvature="0" />
      <path
         d="m 125.38799,63.254997 q 0.40308,-0.594279 0.82682,-0.878499 0.42892,-0.28422 0.95085,-0.28422 0.69246,0 1.2299,0.578776 0.53743,0.573608 0.53743,1.421102 0,0.775146 -0.49092,1.421101 -0.49093,0.640788 -1.35392,0.640788 -0.56328,0 -1.0542,-0.346232 -0.48576,-0.346232 -0.76481,-1.064534 -0.34624,-0.894003 -0.34624,-1.979208 0,-0.816487 0.32557,-1.519287 0.24804,-0.542602 0.66145,-0.950846 0.41341,-0.413412 0.96119,-0.671794 0.55293,-0.26355 1.19372,-0.26355 0.43408,0 0.72347,0.1757 0.12402,0.07751 0.12402,0.206706 0,0.09302 -0.0568,0.155029 -0.0568,0.05684 -0.14469,0.05684 -0.0672,0 -0.1602,-0.05168 -0.21187,-0.103353 -0.5271,-0.103353 -1.00769,0 -1.83968,0.868164 -0.82682,0.862997 -0.82682,2.056722 0,0.170532 0.031,0.532267 z m 0.0982,0.718303 q 0.19637,0.940511 0.61495,1.343587 0.42374,0.403076 0.99735,0.403076 0.57878,0 0.98702,-0.449585 0.41341,-0.454752 0.41341,-1.178222 0,-0.676962 -0.41341,-1.121379 -0.41341,-0.444417 -0.93534,-0.444417 -0.50126,0 -0.96635,0.428914 -0.31006,0.28422 -0.69763,1.018026 z"
         style="fill:none;fill-opacity:1;stroke:#000000;stroke-width:0.65457761;stroke-miterlimit:4;stroke-dasharray:none;stroke-opacity:1"
         id="path3705"
         inkscape:connector-curvature="0" />
    </g>
    <g
       id="g3890"
       inkscape:label="0"
       transform="matrix(0.26458333,0,0,0.26458333,68.508185,-240.39285)">
      <path
         id="path3724"
         style="fill:none;stroke:#000000"
         d="M 0,1064.4392 H -70.961261"
         inkscape:connector-curvature="0" />
      <path
         id="path3726"
         style="fill:none;stroke:#000000"
         d="m -85.481387,1077.3199 a 14.074327,14.074327 0 0 0 14.520126,-12.8807"
         inkscape:connector-curvature="0" />
      <path
         id="path3728"
         style="fill:none;stroke:#000000"
         d="m -78.799996,1089.9675 h -6.681391"
         inkscape:connector-curvature="0" />
      <path
         id="path3730"
         style="fill:none;stroke:#000000"
         d="m -85.481387,1103.5199 h 6.681391"
         inkscape:connector-curvature="0" />
      <path
         id="path3732"
         style="fill:none;stroke:#000000"
         d="m -78.799996,1103.5199 a 6.7762175,6.7762175 0 0 0 0,-13.5524"
         inkscape:connector-curvature="0" />
      <path
         id="path3734"
         style="fill:none;stroke:#000000"
         d="m -85.481387,1077.3199 v 12.6476"
         inkscape:connector-curvature="0" />
      <path
         id="path3736"
         style="fill:none;stroke:#000000"
         d="m -85.481387,1103.5199 v 12.2429"
         inkscape:connector-curvature="0" />
      <path
         id="path3738"
         style="fill:none;stroke:#000000"
         d="M 0,1180.6002 H -70.961261"
         inkscape:connector-curvature="0" />
      <path
         id="path3740"
         style="fill:none;stroke:#000000"
         d="m -70.961261,1180.6002 a 14.074327,14.074327 0 0 0 -14.520126,-12.8808"
         inkscape:connector-curvature="0" />
      <path
         id="path3742"
         style="fill:none;stroke:#000000"
         d="m -85.481387,1167.7194 v -12.6475"
         inkscape:connector-curvature="0" />
      <path
         id="path3744"
         style="fill:none;stroke:#000000"
         d="m -78.799996,1155.0719 h -6.681391"
         inkscape:connector-curvature="0" />
      <path
         id="path3746"
         style="fill:none;stroke:#000000"
         d="m -78.799996,1155.0719 a 6.7762175,6.7762175 0 0 0 0,-13.5524"
         inkscape:connector-curvature="0" />
      <path
         id="path3748"
         style="fill:none;stroke:#000000"
         d="m -85.481387,1141.5195 h 6.681391"
         inkscape:connector-curvature="0" />
      <path
         id="path3750"
         style="fill:none;stroke:#000000"
         d="m -85.481387,1141.5195 v -12.2043"
         inkscape:connector-curvature="0" />
      <path
         id="path3752"
         style="fill:none;stroke:#000000"
         d="m -85.481387,1129.3152 h 6.681391"
         inkscape:connector-curvature="0" />
      <path
         id="path3754"
         style="fill:none;stroke:#000000"
         d="m -78.799996,1115.7628 h -6.681391"
         inkscape:connector-curvature="0" />
      <path
         id="path3756"
         style="fill:none;stroke:#000000"
         d="m -78.799996,1129.3152 a 6.776217,6.776217 0 0 0 0,-13.5524"
         inkscape:connector-curvature="0" />
      <path
         id="path3758"
         style="fill:none;stroke:#000000"
         d="M 0,1064.4392 H 70.961261"
         inkscape:connector-curvature="0" />
      <path
         id="path3760"
         style="fill:none;stroke:#000000"
         d="m 70.961261,1064.4392 a 14.074327,14.074327 0 0 0 14.520126,12.8807"
         inkscape:connector-curvature="0" />
      <path
         id="path3762"
         style="fill:none;stroke:#000000"
         d="m 85.481387,1077.3199 v 12.6476"
         inkscape:connector-curvature="0" />
      <path
         id="path3764"
         style="fill:none;stroke:#000000"
         d="m 78.799996,1089.9675 h 6.681391"
         inkscape:connector-curvature="0" />
      <path
         id="path3766"
         style="fill:none;stroke:#000000"
         d="m 78.799996,1089.9675 a 6.7762175,6.7762175 0 0 0 0,13.5524"
         inkscape:connector-curvature="0" />
      <path
         id="path3768"
         style="fill:none;stroke:#000000"
         d="M 85.481387,1103.5199 H 78.799996"
         inkscape:connector-curvature="0" />
      <path
         id="path3770"
         style="fill:none;stroke:#000000"
         d="m 85.481387,1103.5199 v 12.2429"
         inkscape:connector-curvature="0" />
      <path
         id="path3772"
         style="fill:none;stroke:#000000"
         d="m 78.799996,1115.7628 h 6.681391"
         inkscape:connector-curvature="0" />
      <path
         id="path3774"
         style="fill:none;stroke:#000000"
         d="m 78.799996,1115.7628 a 6.776217,6.776217 0 0 0 0,13.5524"
         inkscape:connector-curvature="0" />
      <path
         id="path3776"
         style="fill:none;stroke:#000000"
         d="M 85.481387,1129.3152 H 78.799996"
         inkscape:connector-curvature="0" />
      <path
         id="path3778"
         style="fill:none;stroke:#000000"
         d="m 85.481387,1141.5195 v -12.2043"
         inkscape:connector-curvature="0" />
      <path
         id="path3780"
         style="fill:none;stroke:#000000"
         d="M 85.481387,1141.5195 H 78.799996"
         inkscape:connector-curvature="0" />
      <path
         id="path3782"
         style="fill:none;stroke:#000000"
         d="m 78.799996,1141.5195 a 6.7762175,6.7762175 0 0 0 0,13.5524"
         inkscape:connector-curvature="0" />
      <path
         id="path3784"
         style="fill:none;stroke:#000000"
         d="m 78.799996,1155.0719 h 6.681391"
         inkscape:connector-curvature="0" />
      <path
         id="path3786"
         style="fill:none;stroke:#000000"
         d="m 85.481387,1167.7194 v -12.6475"
         inkscape:connector-curvature="0" />
      <path
         id="path3788"
         style="fill:none;stroke:#000000"
         d="m 85.481387,1167.7194 a 14.074327,14.074327 0 0 0 -14.520126,12.8808"
         inkscape:connector-curvature="0" />
      <path
         id="path3790"
         style="fill:none;stroke:#000000"
         d="M 0,1180.6002 H 70.961261"
         inkscape:connector-curvature="0" />
      <path
         id="path3792"
         style="fill:none;stroke:#000000"
         d="m 53.484315,1165.6278 h -106.96863 a 11.338583,11.338583 0 0 1 -11.338583,-11.3386 v -63.5391 a 11.338583,11.338583 0 0 1 11.338583,-11.3385 h 106.96863 a 11.338583,11.338583 0 0 1 11.338583,11.3385 v 63.5391 a 11.338583,11.338583 0 0 1 -11.338583,11.3386 z"
         inkscape:connector-curvature="0" />
      <path
         id="path3794"
         style="fill:none;stroke:#000000"
         d="m -57.188426,1143.4231 h 29.072117"
         inkscape:connector-curvature="0" />
      <path
         id="path3796"
         style="fill:none;stroke:#000000"
         d="M -6.164804,1143.4231 H 22.907313"
         inkscape:connector-curvature="0" />
      <path
         id="path3798"
         style="fill:none;stroke:#000000"
         d="m 29.126207,1092.1286 v 10.2051"
         inkscape:connector-curvature="0" />
      <path
         id="path3800"
         style="fill:none;stroke:#000000"
         d="m 29.126207,1106.3018 v 10.2051"
         inkscape:connector-curvature="0" />
      <path
         id="path3802"
         style="fill:none;stroke:#000000"
         d="m 29.126207,1121.042 v 10.2051"
         inkscape:connector-curvature="0" />
      <path
         id="path3804"
         style="fill:none;stroke:#000000"
         d="m 29.126207,1135.7821 v 10.2051"
         inkscape:connector-curvature="0" />
      <path
         id="path3806"
         style="fill:none;stroke:#000000"
         d="m 29.126207,1150.5223 v 10.2051"
         inkscape:connector-curvature="0" />
      <path
         id="path3808"
         style="fill:none;stroke:#000000"
         d="m 29.126207,1079.4116 v 8.1819"
         inkscape:connector-curvature="0" />
    </g>
    <text
       xml:space="preserve"
       style="font-style:normal;font-variant:normal;font-weight:bold;font-stretch:normal;font-size:5.71863413px;line-height:1.25;font-family:'Courier New';-inkscape-font-specification:'Courier New Bold';letter-spacing:0px;word-spacing:0px;fill:#000000;fill-opacity:1;stroke:none;stroke-width:0.14296584"
       x="53.961891"
       y="57.83123"
       id="text4010"><tspan
         sodipodi:role="line"
         id="tspan4008"
         x="53.961891"
         y="57.83123"
         style="font-style:normal;font-variant:normal;font-weight:bold;font-stretch:normal;font-family:'Courier New';-inkscape-font-specification:'Courier New Bold';stroke-width:0.14296584">TICKET</tspan></text>
    <path
       style="fill:#000000;fill-opacity:1;stroke:#000000;stroke-width:0.05346118;stroke-miterlimit:4;stroke-dasharray:none;stroke-opacity:1"
       d="m 55.695267,51.529245 c 0.20466,-0.835662 0.301246,-1.305281 0.258287,-1.331833 -0.401786,-0.50589 -0.38976,-0.478968 -0.543357,-0.678454 l -0.495882,-0.574497 0.594745,-0.01167 c 0.471737,-0.0093 0.555206,-0.0461 0.594741,-0.06973 0.181529,-0.173811 0.442701,-0.484849 0.627981,-0.77791 0.263329,-0.41738 0.492514,-0.750386 0.509304,-0.74001 0.0168,0.01037 0.23522,0.343961 0.485396,0.741296 0.164002,0.293078 0.393425,0.579885 0.608514,0.799799 0.145862,0.05173 0.275964,0.03719 0.613254,0.03719 h 0.613255 l -0.510601,0.577941 c -0.318453,0.438724 -0.259078,0.310968 -0.500256,0.628071 0.08514,0.646145 0.09168,0.834662 0.21776,1.488261 -0.0097,0 -0.331002,-0.227328 -0.713958,-0.505176 -0.23876,-0.18237 -0.599252,-0.41933 -0.813331,-0.5535 -0.516949,0.350323 -0.536126,0.319877 -0.92683,0.618062 -0.675707,0.491364 -0.649448,0.476425 -0.619016,0.35216 z"
       id="path4012"
       inkscape:connector-curvature="0"
       sodipodi:nodetypes="ccccccccccsccccccccc" />
    <path
       style="fill:#000000;fill-opacity:1;stroke:#000000;stroke-width:0.05346118;stroke-miterlimit:4;stroke-dasharray:none;stroke-opacity:1"
       d="m 62.130368,51.50821 c 0.20466,-0.835662 0.301246,-1.305281 0.258287,-1.331833 -0.401786,-0.50589 -0.38976,-0.478968 -0.543357,-0.678454 l -0.495882,-0.574497 0.594745,-0.01167 c 0.471737,-0.0093 0.555206,-0.0461 0.594741,-0.06973 0.181529,-0.173811 0.442701,-0.484849 0.627981,-0.77791 0.263329,-0.41738 0.492514,-0.750386 0.509304,-0.74001 0.0168,0.01037 0.23522,0.343961 0.485397,0.741296 0.164002,0.293078 0.393424,0.579885 0.608513,0.799799 0.145863,0.05173 0.275965,0.03719 0.613255,0.03719 h 0.613255 l -0.510602,0.577941 c -0.318453,0.438724 -0.259077,0.310968 -0.500255,0.628071 0.08514,0.646145 0.09168,0.834662 0.21776,1.488261 -0.0097,0 -0.331002,-0.227328 -0.713958,-0.505176 -0.23876,-0.18237 -0.599253,-0.41933 -0.813332,-0.5535 -0.516949,0.350323 -0.536126,0.319877 -0.92683,0.618062 -0.675707,0.491364 -0.649448,0.476425 -0.619016,0.35216 z"
       id="path4012-6"
       inkscape:connector-curvature="0"
       sodipodi:nodetypes="ccccccccccsccccccccc" />
    <path
       style="fill:#000000;fill-opacity:1;stroke:#000000;stroke-width:0.05346118;stroke-miterlimit:4;stroke-dasharray:none;stroke-opacity:1"
       d="m 69.065368,51.487175 c 0.20466,-0.835662 0.301246,-1.305281 0.258287,-1.331833 -0.401786,-0.50589 -0.38976,-0.478968 -0.543357,-0.678454 l -0.495882,-0.574497 0.594745,-0.01167 c 0.471737,-0.0093 0.555206,-0.0461 0.594741,-0.06973 0.181529,-0.173811 0.442701,-0.484849 0.627981,-0.77791 0.263329,-0.41738 0.492514,-0.750386 0.509304,-0.74001 0.0168,0.01037 0.23522,0.343961 0.485397,0.741296 0.164002,0.293078 0.393424,0.579885 0.608513,0.799799 0.145863,0.05173 0.275965,0.03719 0.613255,0.03719 h 0.613255 l -0.510602,0.577941 c -0.318453,0.438724 -0.259077,0.310968 -0.500255,0.628071 0.08514,0.646145 0.09168,0.834662 0.21776,1.488261 -0.0097,0 -0.331002,-0.227328 -0.713958,-0.505176 -0.23876,-0.18237 -0.599253,-0.41933 -0.813332,-0.5535 -0.516949,0.350323 -0.536126,0.319877 -0.92683,0.618062 -0.675707,0.491364 -0.649448,0.476425 -0.619016,0.35216 z"
       id="path4012-6-2"
       inkscape:connector-curvature="0"
       sodipodi:nodetypes="ccccccccccsccccccccc" />
    <path
       style="fill:#000000;fill-opacity:1;stroke:#000000;stroke-width:0.05346118;stroke-miterlimit:4;stroke-dasharray:none;stroke-opacity:1"
       d="m 62.130368,64.737385 c 0.20466,-0.835662 0.301246,-1.305281 0.258287,-1.331833 -0.401786,-0.50589 -0.38976,-0.478968 -0.543357,-0.678454 l -0.495882,-0.574497 0.594745,-0.01167 c 0.471737,-0.0093 0.555206,-0.0461 0.594741,-0.06973 0.181529,-0.173811 0.442701,-0.484849 0.627981,-0.77791 0.263329,-0.41738 0.492514,-0.750386 0.509304,-0.74001 0.0168,0.01037 0.23522,0.343961 0.485397,0.741296 0.164002,0.293078 0.393424,0.579885 0.608513,0.799799 0.145863,0.05173 0.275965,0.03719 0.613255,0.03719 h 0.613255 l -0.510602,0.577941 c -0.318453,0.438724 -0.259077,0.310968 -0.500255,0.628071 0.08514,0.646145 0.09168,0.834662 0.21776,1.488261 -0.0097,0 -0.331002,-0.227328 -0.713958,-0.505176 -0.23876,-0.18237 -0.599253,-0.41933 -0.813332,-0.5535 -0.516949,0.350323 -0.536126,0.319877 -0.92683,0.618062 -0.675707,0.491364 -0.649448,0.476425 -0.619016,0.35216 z"
       id="path4012-6-1"
       inkscape:connector-curvature="0"
       sodipodi:nodetypes="ccccccccccsccccccccc" />
    <path
       style="fill:#feae3b;fill-opacity:1;stroke:#000000;stroke-width:0.22449249;stroke-miterlimit:4;stroke-dasharray:none;stroke-opacity:1"
       d="m 188.36805,270.65717 c -0.17176,-1.26883 -1.04158,-3.60932 -1.84223,-4.957 -1.52103,-2.56028 -4.17525,-4.85477 -6.94658,-6.00512 -1.42901,-0.59316 -3.62315,-1.10289 -4.74743,-1.10289 h -0.71456 v -5.74524 -5.74525 h 3.26167 c 1.79392,0 3.68322,-0.0888 4.19845,-0.19727 6.25965,-1.31819 7.96522,-9.61831 2.71825,-13.22832 -1.53944,-1.05916 -2.52532,-1.24687 -6.54887,-1.24687 h -3.6295 v -5.55376 -5.55377 l 3.93329,-0.0589 3.93328,-0.0589 1.1916,-0.56447 c 3.67902,-1.74278 5.27279,-6.15585 3.54023,-9.80273 -0.67622,-1.42339 -1.51929,-2.38455 -2.7231,-3.10454 -1.55376,-0.92929 -2.61768,-1.11234 -6.46529,-1.11234 h -3.41001 v -5.55631 -5.55632 l 3.93329,-0.0563 3.93328,-0.0564 1.19745,-0.56721 c 0.72708,-0.3444 1.56463,-0.93464 2.13218,-1.5026 3.9488,-3.95163 2.08085,-10.83286 -3.32258,-12.23991 -0.77598,-0.20206 -1.95215,-0.27436 -4.46361,-0.27436 h -3.41001 v -5.74524 -5.74524 h 0.60317 c 0.85948,0 3.01694,-0.44411 4.24738,-0.8743 1.90436,-0.66583 4.15353,-2.13384 5.60854,-3.66065 1.77758,-1.86529 3.24853,-4.72045 3.70319,-7.18799 l 0.21775,-1.18176 h 70.41159 70.41159 l 0.10195,0.48614 c 0.53747,2.5626 1.16884,4.18946 2.26697,5.84128 0.45321,0.68172 1.49521,1.87483 2.31556,2.65136 2.32118,2.19719 5.34022,3.56053 8.54395,3.85828 l 1.27399,0.11841 v 5.71986 5.71985 h -3.35006 c -3.74704,0 -4.76744,0.15157 -6.23778,0.92651 -4.39536,2.31658 -5.1325,8.34031 -1.44297,11.79169 1.80735,1.69068 2.37805,1.84489 7.09753,1.9178 l 3.93328,0.0608 v 5.54161 5.54162 l -3.94317,0.0589 -3.94318,0.0589 -1.33193,0.65864 c -1.62856,0.80531 -2.78317,1.9818 -3.56533,3.63291 -0.51608,1.08943 -0.56303,1.33592 -0.56303,2.95629 0,1.62038 0.0469,1.86687 0.56303,2.9563 0.63585,1.34225 1.85904,2.7462 2.94707,3.38257 1.45433,0.85062 2.37313,0.99737 6.2447,0.99737 h 3.59184 v 5.55651 5.55652 l -4.02167,0.0561 -4.02167,0.0561 -1.1508,0.5633 c -4.589,2.24624 -5.63872,8.22658 -2.07035,11.79495 1.86298,1.86298 3.14338,2.22582 7.85449,2.22582 h 3.41 v 5.74525 5.74524 h -0.69156 c -1.14501,0 -3.26535,0.47489 -4.71875,1.05686 -2.68605,1.07555 -5.18187,3.13467 -6.79962,5.60989 -0.83568,1.27862 -1.80433,3.63897 -2.02299,4.92953 -0.0643,0.37934 -0.15505,0.82891 -0.20173,0.99906 -0.0806,0.29397 -3.58794,0.30936 -70.49569,0.30936 h -70.41083 z m 126.72862,-13.28011 c 0.48613,-0.12566 1.6396,-0.58962 2.56326,-1.031 1.43176,-0.6842 1.90161,-1.0274 3.18654,-2.32761 1.63727,-1.65673 2.51417,-3.15289 3.12145,-5.32578 0.30517,-1.09193 0.32114,-2.81872 0.32114,-34.73663 0,-37.62826 0.1125,-34.36248 -1.28189,-37.21149 -0.49964,-1.02086 -1.01643,-1.69336 -2.24677,-2.9237 -1.69947,-1.69947 -3.08786,-2.53711 -5.31018,-3.20371 -1.00983,-0.30291 -3.68225,-0.32055 -55.77048,-0.36797 -58.8775,-0.0536 -56.11688,-0.0927 -58.55229,0.8297 -3.27382,1.23997 -6.0028,4.17928 -7.06565,7.61022 l -0.41072,1.32583 v 34.02951 34.02952 l 0.54541,1.52341 c 1.55894,4.35441 5.24964,7.34942 9.78269,7.93867 0.54208,0.0705 25.56641,0.11493 55.60961,0.0988 44.00768,-0.0236 54.79578,-0.0737 55.50788,-0.25778 z"
       id="path4092"
       inkscape:connector-curvature="0"
       transform="scale(0.26458333)" />
    <path
       style="fill:#feae3b;fill-opacity:1;stroke:#000000;stroke-width:0.22449249;stroke-miterlimit:4;stroke-dasharray:none;stroke-opacity:1"
       d="m 202.79074,256.11422 c -3.56681,-0.9368 -6.45836,-3.70243 -7.66705,-7.33317 l -0.41195,-1.23743 -0.0517,-32.6153 c -0.0338,-21.31341 0.0104,-33.08648 0.12741,-33.97504 0.55198,-4.19073 3.21939,-7.47688 7.31649,-9.01365 l 1.09306,-0.40999 42.11705,-0.0463 42.11705,-0.0464 v 3.80286 3.80285 h 0.61871 0.61872 v -3.8007 -3.8007 h 12.52287 c 11.93825,0 12.58731,0.0165 13.90327,0.35305 1.84989,0.47312 3.47059,1.40861 4.87712,2.81515 1.4128,1.41279 2.34951,3.04075 2.81988,4.90081 0.34728,1.37331 0.3521,1.92234 0.30638,34.89109 l -0.0464,33.49582 -0.47191,1.29167 c -1.17596,3.21869 -3.58905,5.60225 -6.86432,6.78032 l -1.14905,0.41329 -55.24272,0.0353 c -53.93758,0.0345 -55.2732,0.0273 -56.53288,-0.30354 z m 85.87781,-9.10093 v -5.21492 h -0.61872 -0.61871 v 5.21492 5.21491 h 0.61871 0.61872 z m 12.55115,1.14904 c 0.42077,-0.42077 0.43934,-0.85365 0.0865,-2.01683 -0.14479,-0.47728 -0.26325,-0.93469 -0.26325,-1.01646 0,-0.0818 2.02851,-0.14869 4.50781,-0.14869 h 4.5078 v 1.41422 c 0,1.17851 0.0589,1.47314 0.35356,1.76776 0.44413,0.44414 0.90347,0.44913 1.43882,0.0156 0.41569,-0.3366 0.41733,-0.35324 0.41733,-4.22408 0,-3.57346 -0.0271,-3.91608 -0.33676,-4.25826 -0.42432,-0.46886 -1.0613,-0.47664 -1.51939,-0.0186 -0.29463,0.29463 -0.35356,0.58926 -0.35356,1.76777 v 1.41421 h -6.11771 c -5.38889,0 -6.10548,0.0319 -6.01506,0.26749 0.0564,0.14711 0.42806,1.29966 0.82579,2.56121 0.72929,2.31319 1.05711,2.82816 1.80038,2.82816 0.17282,0 0.47331,-0.1591 0.66777,-0.35356 z m -64.80448,-4.03725 c 1.90066,-1.37171 4.12419,-2.85704 4.27697,-2.85704 0.0676,0 1.04565,0.6523 2.1735,1.44956 2.92265,2.06598 3.56354,2.48814 3.64841,2.40328 0.0412,-0.0412 -0.0823,-1.14374 -0.27446,-2.45003 -0.19218,-1.30629 -0.34979,-2.5847 -0.35023,-2.84091 -8.9e-4,-0.48277 0.68731,-1.42395 2.79378,-3.821 l 1.12627,-1.28163 h -1.93834 c -2.82879,0 -2.91435,-0.0302 -3.95421,-1.39408 -0.49027,-0.64305 -1.38079,-1.92166 -1.97893,-2.84136 -0.59814,-0.91969 -1.17151,-1.69678 -1.27417,-1.72686 -0.10265,-0.0301 -0.87198,0.96105 -1.70963,2.2025 -0.83764,1.24146 -1.84143,2.56577 -2.23064,2.94291 l -0.70767,0.68572 -2.22256,0.10977 -2.22256,0.10978 1.84538,2.20971 c 1.01496,1.21534 1.94039,2.38385 2.05651,2.59669 0.19775,0.36247 -0.0256,1.72688 -0.84099,5.13729 -0.14922,0.62412 0.22358,0.49153 1.78357,-0.6343 z m 52.25333,-11.78426 v -5.21491 h -0.61872 -0.61871 v 5.21491 5.21491 h 0.61871 0.61872 z m 23.59969,-0.35355 v -4.77297 l -0.69933,-0.057 c -0.93186,-0.076 -1.79137,0.0981 -2.12341,0.43016 -0.42266,0.42266 -0.33806,1.22772 0.17109,1.62823 0.42315,0.33284 0.44187,0.42925 0.44018,2.26673 l -0.002,1.9191 -2.51732,-2.57575 c -2.93166,-2.99972 -3.74463,-3.55582 -5.21856,-3.56971 -2.43303,-0.0229 -4.27366,1.90059 -4.27366,4.46608 0,1.85168 0.94154,3.45265 2.50426,4.25813 1.19644,0.6167 2.26407,0.28302 2.25824,-0.7058 -0.004,-0.6252 -0.14087,-0.79154 -1.0207,-1.23761 -0.96947,-0.49153 -1.44995,-1.27072 -1.45081,-2.35276 -0.001,-1.51872 1.43621,-2.62308 2.61842,-2.01173 0.28797,0.14891 2.02398,1.82543 3.8578,3.72559 l 3.33423,3.45485 1.06066,-0.0463 1.06066,-0.0463 v -4.77297 z m -81.40567,2.82842 v -0.61871 H 216.2785 201.69442 v 0.61871 0.61872 h 14.58408 14.58407 z m 51.08847,-10e-4 v -0.61974 l -14.62827,0.0452 -14.62828,0.0452 -0.0554,0.57452 -0.0554,0.57452 h 14.68366 14.68367 z m 29.12712,-11.09223 c 0.7644,-0.81366 1.3409,-2.42656 1.42287,-3.98081 0.0721,-1.36771 0.0403,-1.53695 -0.4915,-2.61729 -1.34986,-2.74195 -4.45256,-3.48054 -6.66518,-1.58661 -0.6609,0.5657 -0.74913,0.59598 -0.96753,0.33206 -0.3843,-0.4644 -1.59052,-0.93338 -2.4115,-0.93759 -1.46139,-0.008 -2.93694,0.97132 -3.59175,2.3826 -0.41682,0.89834 -0.43877,2.72856 -0.0465,3.8797 0.35212,1.03341 1.59497,2.39588 2.18553,2.39588 0.98796,0 1.44651,-1.36381 0.68904,-2.04931 -0.60754,-0.54978 -0.86579,-1.2318 -0.86579,-2.2865 0,-0.86365 0.0681,-1.06271 0.51674,-1.51138 1.19788,-1.19789 2.66524,-0.25398 2.66524,1.71447 0,1.0184 0.36077,1.4811 1.15481,1.4811 0.73282,0 0.94292,-0.27149 1.1381,-1.4707 0.29467,-1.8105 1.04591,-2.67551 2.32361,-2.67551 1.20706,0 2.101,1.19083 2.101,2.79877 0,0.76256 -0.13141,1.22031 -0.61872,2.15522 -0.70448,1.35155 -0.72038,1.44329 -0.34353,1.98132 0.37378,0.53365 1.30131,0.53088 1.8051,-0.005 z m -22.40961,-6.14243 v -5.12653 h -0.61872 -0.61871 v 5.12653 5.12652 h 0.61871 0.61872 z m -49.99231,1.21545 c 2.54572,-0.54015 4.19703,-2.27361 3.20748,-3.36705 -0.46358,-0.51225 -1.23697,-0.40344 -2.04431,0.28762 -1.1808,1.01072 -3.20583,1.22232 -4.90856,0.51289 -1.50639,-0.62762 -2.11421,-1.76355 -2.11985,-3.9617 -0.003,-1.27935 0.0669,-1.65424 0.45633,-2.43562 0.83354,-1.67268 2.3732,-2.40404 4.20026,-1.99516 1.0661,0.23858 2.05704,0.98769 2.05704,1.55504 0,0.62347 0.50796,1.11746 1.14905,1.11746 0.92214,0 1.14905,-0.47127 1.14905,-2.38649 0,-2.0139 -0.24427,-2.47785 -1.21503,-2.30771 -0.98534,0.17269 -1.27197,0.1526 -2.32051,-0.16264 -1.94396,-0.58446 -4.32962,-0.0531 -5.88226,1.31011 -0.35816,0.31447 -0.91138,1.10009 -1.22937,1.7458 -0.53932,1.09517 -0.58217,1.31679 -0.63795,3.29944 -0.0516,1.8329 -0.008,2.2638 0.31798,3.13096 1.07217,2.85389 4.35999,4.39132 7.82065,3.65705 z m -24.64679,-0.42998 c 0.27449,-0.19226 0.39289,-0.45561 0.39289,-0.87386 0,-0.82529 -0.50918,-1.14905 -1.8071,-1.14905 h -1.02133 v -4.15425 -4.15425 h 1.03795 1.03795 l 0.0835,1.44331 c 0.0712,1.22947 0.14292,1.49138 0.48424,1.76776 0.5089,0.41209 0.92275,0.41087 1.43538,-0.004 0.38253,-0.30975 0.41042,-0.47793 0.48379,-2.91681 l 0.0779,-2.58812 h -5.78055 -5.78055 l 0.0572,2.57929 c 0.0547,2.46384 0.0759,2.59439 0.47457,2.91681 0.5355,0.4331 0.99481,0.42799 1.43883,-0.016 0.29462,-0.29463 0.35355,-0.58926 0.35355,-1.76777 v -1.41421 h 1.14905 1.14905 v 4.15425 4.15425 h -1.0687 c -0.89896,0 -1.13761,0.0689 -1.5026,0.43391 -0.23865,0.23866 -0.43391,0.56047 -0.43391,0.71515 0,0.15468 0.19526,0.47649 0.43391,0.71514 0.42911,0.42912 0.46966,0.43391 3.67298,0.43391 2.6455,0 3.31106,-0.0504 3.63195,-0.27519 z m 13.82792,-0.0784 c 0.19445,-0.19445 0.35355,-0.55242 0.35355,-0.79549 0,-0.86664 -0.5431,-1.14905 -2.20971,-1.14905 h -1.5026 v -4.15425 -4.15425 h 1.39038 c 1.13893,0 1.4746,-0.0663 1.85615,-0.36639 0.55975,-0.4403 0.60558,-1.0848 0.11223,-1.57816 -0.33321,-0.33321 -0.58926,-0.35355 -4.44969,-0.35355 -4.57391,0 -4.7427,0.0415 -4.7427,1.16642 0,0.87082 0.49805,1.13168 2.16066,1.13168 h 1.37487 v 4.15425 4.15425 h -1.37487 c -1.67352,0 -2.16066,0.25906 -2.16066,1.14905 0,1.08756 0.25751,1.14905 4.81231,1.14905 3.79082,0 4.04722,-0.0207 4.38008,-0.35356 z m 21.13285,-0.0804 c 0.23865,-0.23865 0.43391,-0.56046 0.43391,-0.71514 0,-0.5541 -0.81962,-1.14905 -1.58296,-1.14905 h -0.71514 v -1.13618 c 0,-1.09291 0.0246,-1.15648 0.64685,-1.66937 0.60007,-0.49462 0.68094,-0.51556 1.11814,-0.28948 0.84821,0.43863 1.80221,1.70167 2.69161,3.56354 l 0.87397,1.82959 h 1.41395 c 1.25544,0 1.45484,-0.0459 1.77863,-0.40941 l 0.36467,-0.40942 0.40941,0.40942 0.40942,0.40941 h 5.48811 5.48811 v -1.95617 c 0,-2.38562 -0.23888,-2.98438 -1.19324,-2.99087 -0.71114,-0.005 -1.10486,0.59264 -1.10486,1.67667 v 0.97227 h -2.65165 -2.65165 v -1.51229 -1.51229 l 0.83969,0.0539 c 0.74408,0.0478 0.84656,0.10421 0.90001,0.49583 0.0852,0.62469 0.53275,1.06066 1.08873,1.06066 0.82086,0 1.09434,-0.51601 1.19131,-2.24777 0.10947,-1.95513 -0.14204,-3.00729 -0.7557,-3.16131 -0.72789,-0.18269 -1.30245,0.0579 -1.41995,0.5946 -0.19776,0.90325 -0.22271,0.92539 -1.04304,0.92539 h -0.80105 v -1.5026 -1.5026 h 2.3646 2.36459 l 0.0797,0.96155 c 0.0967,1.16615 0.35413,1.51332 1.12211,1.51332 1.01439,0 1.14003,-0.29362 1.14003,-2.66428 v -2.10869 h -5.26951 c -5.66277,0 -5.74462,0.0126 -5.96306,0.91918 -0.14354,0.59569 0.55888,1.37892 1.23665,1.37892 h 0.44998 v 4.15425 4.15425 h -0.44998 c -0.24748,0 -0.63421,0.18423 -0.85939,0.40941 l -0.40941,0.40941 -0.36467,-0.40941 c -0.2562,-0.28763 -0.56583,-0.41259 -1.04096,-0.42011 -0.66974,-0.0106 -0.68301,-0.0247 -1.36968,-1.45841 -0.49273,-1.02873 -1.00723,-1.76231 -1.77781,-2.53477 l -1.08441,-1.08707 1.85294,-1.60878 c 1.01913,-0.88482 1.98042,-1.60877 2.13623,-1.60877 0.57861,0 1.06904,-0.52714 1.06904,-1.14905 0,-0.95148 -0.4527,-1.14905 -2.63287,-1.14905 -1.47067,0 -1.91298,0.0596 -2.17037,0.29256 -0.36698,0.33211 -0.43315,1.29462 -0.11115,1.61663 0.13274,0.13273 0.14928,0.27014 0.0442,0.36712 -0.69118,0.63788 -3.30061,2.85021 -3.36181,2.85021 -0.0421,0 -0.0765,-0.63639 -0.0765,-1.41421 v -1.41421 h 0.71514 c 0.94715,0 1.67341,-0.66683 1.50182,-1.37892 -0.19996,-0.82988 -0.50067,-0.91918 -3.0953,-0.91918 -1.88767,0 -2.48585,0.0589 -2.79464,0.27519 -0.84591,0.5925 -0.24873,2.02291 0.84455,2.02291 h 0.53033 v 4.15425 4.15425 h -0.53033 c -1.09328,0 -1.69046,1.4304 -0.84455,2.02291 0.30787,0.21564 0.90256,0.27519 2.74808,0.27519 2.26486,0 2.37182,-0.0166 2.78909,-0.43391 z m 29.95561,0.0804 c 0.35636,-0.35635 0.45832,-0.98403 0.21827,-1.34355 -0.26013,-0.38957 -0.9236,-0.60099 -1.88602,-0.60099 h -0.9839 v -4.15425 -4.15425 h 1.14905 1.14905 l 0.002,1.19324 c 0.003,1.58167 0.11363,1.92069 0.70549,2.16584 0.57049,0.23631 1.11015,0.036 1.40937,-0.52309 0.0995,-0.18583 0.18084,-1.41703 0.18084,-2.73599 v -2.3981 h -5.65686 -5.65685 v 2.52947 c 0,2.73062 0.083,3.02153 0.91918,3.22303 0.37008,0.0892 0.57847,0.0138 0.92808,-0.33585 0.4036,-0.4036 0.45084,-0.59059 0.45084,-1.7847 v -1.33385 h 1.06066 1.06066 v 4.15425 4.15425 h -1.06066 c -1.19678,0 -1.76777,0.37114 -1.76777,1.14905 0,0.24307 0.1591,0.60104 0.35355,0.79549 0.32875,0.32875 0.58926,0.35356 3.71231,0.35356 3.12306,0 3.38357,-0.0248 3.71231,-0.35356 z m 29.87527,-9.36916 v -2.82843 h 0.61871 c 0.60823,0 0.61872,0.0125 0.61872,0.73738 0,0.86996 0.38932,1.3851 1.04387,1.38124 0.60819,-0.004 0.84071,-0.17011 1.06639,-0.7637 0.23592,-0.62052 0.24613,-3.47667 0.0146,-4.08562 -0.3751,-0.98661 -1.80431,-0.9973 -2.05076,-0.0153 -0.0922,0.36747 -0.21842,0.44796 -0.70234,0.44796 -0.46288,0 -0.63957,-0.10118 -0.82053,-0.46983 -0.31103,-0.63365 -0.6978,-0.84397 -1.28228,-0.69727 -0.31886,0.08 -0.55592,0.30321 -0.68484,0.64475 l -0.19715,0.52234 h -4.1155 -4.1155 l 0.002,1.45841 0.002,1.45841 4.28515,2.50135 c 4.11236,2.40049 4.32614,2.50207 5.30162,2.51907 l 1.0163,0.0177 z m -20.15255,-6.0988 v -5.21491 h -0.61872 -0.61871 v 5.21491 5.21492 h 0.61871 0.61872 z m 22.22693,-3.84489 c 0.30401,-0.31599 0.77672,-1.01205 1.05045,-1.5468 0.43661,-0.85294 0.49778,-1.16754 0.49839,-2.56326 7.1e-4,-1.80874 -0.27023,-2.55724 -1.29814,-3.58515 -1.65289,-1.65289 -4.8529,-1.91905 -6.72942,-0.55971 -1.38344,1.00216 -2.10661,3.12109 -1.64085,4.80777 l 0.18306,0.66292 h -1.22319 -1.22319 v -2.34715 c 0,-2.62528 -0.16719,-3.13511 -1.02649,-3.13022 -1.12534,0.006 -1.27161,0.5259 -1.27161,4.5166 v 3.25886 l 3.40295,-0.003 c 1.87163,-0.001 3.49048,-0.0611 3.59746,-0.13258 0.54899,-0.36657 0.62258,-0.9143 0.23741,-1.76716 -0.20805,-0.46068 -0.42032,-1.32492 -0.47173,-1.92055 -0.0902,-1.04557 -0.0722,-1.10615 0.52208,-1.75464 0.55681,-0.60758 0.71498,-0.67807 1.65763,-0.7387 0.76202,-0.049 1.20742,0.0187 1.65728,0.25203 1.71141,0.88759 1.92284,3.22048 0.45016,4.96704 -0.56486,0.6699 -0.62732,1.31172 -0.17617,1.81023 0.47491,0.52477 1.16419,0.4381 1.80392,-0.22683 z m -88.59954,-3.99951 c -0.10616,-0.33448 -0.80021,-4.8889 -0.80172,-5.26096 -8.8e-4,-0.22469 1.11004,-1.63967 2.7779,-3.53808 0.61071,-0.69514 1.11038,-1.31164 1.11038,-1.37002 0,-0.0584 -1.06568,-0.10615 -2.36818,-0.10615 h -2.36817 l -0.58279,-0.66291 c -0.32053,-0.3646 -1.2439,-1.67717 -2.05193,-2.91682 -0.80803,-1.23964 -1.57173,-2.2539 -1.69711,-2.2539 -0.12538,0 -0.82113,0.89483 -1.54611,1.98852 -0.72498,1.09368 -1.71589,2.39667 -2.20203,2.89552 l -0.88388,0.90701 -2.08354,0.0866 c -1.14594,0.0477 -2.13514,0.13824 -2.19822,0.20131 -0.0631,0.0631 0.16852,0.41154 0.51465,0.77435 0.34613,0.36282 1.2359,1.41185 1.97725,2.33118 0.97408,1.20792 1.34792,1.81143 1.34792,2.17603 0,0.2775 -0.19887,1.38554 -0.44194,2.46232 -0.24307,1.07677 -0.44194,2.0664 -0.44194,2.19918 0,0.44611 0.4594,0.24749 1.9457,-0.84122 1.84859,-1.3541 3.83031,-2.62968 4.08542,-2.62968 0.10664,0 0.95371,0.53696 1.88238,1.19324 4.12541,2.91539 4.21809,2.96982 4.02596,2.36445 z m 13.84529,-0.67938 c 2.99664,-2.12934 4.5008,-3.03716 4.78132,-2.88569 0.1548,0.0836 1.42951,0.9547 2.83267,1.93583 2.21434,1.54831 2.84324,1.93359 2.83966,1.73966 -5.3e-4,-0.0243 -0.15918,-1.11811 -0.35273,-2.43068 -0.19356,-1.31256 -0.3523,-2.59221 -0.35274,-2.84365 -8.9e-4,-0.47091 0.85775,-1.64327 2.86944,-3.91806 l 1.05524,-1.19324 h -2.34367 -2.34368 l -0.67182,-0.70623 c -0.3695,-0.38843 -1.34887,-1.74077 -2.17638,-3.0052 -0.82751,-1.26444 -1.57234,-2.29898 -1.65518,-2.29898 -0.0828,0 -0.841,1.01426 -1.6848,2.25391 -0.84379,1.23964 -1.81465,2.56756 -2.15745,2.95091 l -0.62327,0.69702 -2.32105,0.0985 -2.32105,0.0985 1.36471,1.59099 c 0.75058,0.87504 1.69051,2.0129 2.08873,2.52857 l 0.72403,0.93759 -0.47399,2.2444 c -0.26069,1.23441 -0.52159,2.42338 -0.57978,2.64214 -0.15933,0.59903 0.186,0.49872 1.50179,-0.43625 z m 26.84944,-0.5203 c 1.51908,-1.12072 3.70022,-2.53479 3.90981,-2.53479 0.0817,0 1.41187,0.87958 2.95584,1.95463 1.54397,1.07504 2.83197,1.88036 2.86223,1.78959 0.0303,-0.0908 -0.10701,-1.26866 -0.30504,-2.61754 -0.19803,-1.34888 -0.36048,-2.58258 -0.36101,-2.74156 -0.001,-0.30558 0.94333,-1.53846 2.77775,-3.62647 0.61071,-0.69513 1.11038,-1.31164 1.11038,-1.37002 0,-0.0584 -1.06466,-0.10615 -2.36592,-0.10615 h -2.36591 l -0.64962,-0.71905 c -0.35729,-0.39548 -1.28956,-1.70804 -2.0717,-2.91681 -0.78214,-1.20877 -1.52093,-2.19777 -1.64177,-2.19777 -0.12083,0 -0.83779,0.92807 -1.59325,2.06238 -0.75546,1.13431 -1.72269,2.43563 -2.14941,2.89182 l -0.77585,0.82944 -2.16311,0.12653 c -1.18971,0.0696 -2.19509,0.1585 -2.23417,0.19758 -0.0391,0.0391 0.36257,0.57012 0.89257,1.1801 0.52998,0.60998 1.42647,1.68715 1.99218,2.39372 1.00434,1.25442 1.02595,1.30438 0.91735,2.12132 -0.0612,0.46016 -0.30326,1.63057 -0.53799,2.60092 -0.23471,0.97035 -0.38878,1.82572 -0.34236,1.90083 0.11556,0.18698 0.63426,-0.10854 2.139,-1.2187 z m 25.67788,-5.09805 v -5.21492 h -0.61872 -0.61871 v 5.21492 5.21491 h 0.61871 0.61872 z m 19.13632,-2.46876 c 1.29322,-0.27405 2.79985,-0.95399 3.4703,-1.56614 1.14726,-1.0475 1.58963,-3.35013 0.92481,-4.8138 -0.44716,-0.98448 -1.65842,-1.97555 -2.8311,-2.31646 -2.32559,-0.67607 -4.70586,0.3028 -5.74291,2.36174 -0.40458,0.80324 -0.37166,2.45978 0.0659,3.3181 0.40101,0.78656 0.38104,0.85854 -0.19744,0.71165 -0.67648,-0.17178 -1.968,-1.20512 -2.53993,-2.03217 -0.49736,-0.71923 -0.53033,-0.87034 -0.53033,-2.43053 0,-1.44272 -0.0456,-1.69695 -0.34314,-1.91467 -0.64335,-0.47069 -1.34218,-0.2103 -1.79723,0.66967 -0.43637,0.84383 -0.26473,2.94594 0.34507,4.22643 0.8602,1.80625 2.83781,3.38142 4.83559,3.85156 1.03705,0.24406 3.0212,0.21417 4.34038,-0.0654 z"
       id="path4096"
       inkscape:connector-curvature="0"
       transform="scale(0.26458333)" />
    <path
       style="fill:#feae3b;fill-opacity:1;stroke:#000000;stroke-width:0.22449249;stroke-miterlimit:4;stroke-dasharray:none;stroke-opacity:1"
       d="m 306.87655,183.36243 c -0.88694,-0.62481 -1.22902,-1.13778 -1.2335,-1.84977 -0.007,-1.14062 0.9379,-1.93968 2.29416,-1.93968 1.38329,0 2.2981,0.79645 2.2981,2.00078 0,0.88781 -0.51155,1.59489 -1.41551,1.95659 -0.93782,0.37524 -1.20498,0.35215 -1.94325,-0.16792 z"
       id="path4098"
       inkscape:connector-curvature="0"
       transform="scale(0.26458333)" />
    <path
       style="fill:#feae3b;fill-opacity:1;stroke:#000000;stroke-width:0.22449249;stroke-miterlimit:4;stroke-dasharray:none;stroke-opacity:1"
       d="m 304.17323,207.52223 c -1.14653,-0.6666 -2.13427,-1.26167 -2.19498,-1.32238 -0.0607,-0.0607 0.93703,-0.11037 2.21719,-0.11037 h 2.32756 v 1.32583 c 0,0.7292 -0.0597,1.32427 -0.13258,1.32237 -0.0729,-0.002 -1.07066,-0.54885 -2.21719,-1.21545 z"
       id="path4100"
       inkscape:connector-curvature="0"
       transform="scale(0.26458333)" />
  </g>
</svg>
